<?xml version="1.0" encoding="UTF-8" standalone="no"?>
<!-- Created with Inkscape (http://www.inkscape.org/) -->

<svg
   width="46.971172mm"
   height="16.933332mm"
   viewBox="0 0 46.971172 16.933332"
   version="1.1"
   id="svg1"
   inkscape:version="1.3.2 (1:1.3.2+202311252150+091e20ef0f)"
   sodipodi:docname="logo.svg"
   xmlns:inkscape="http://www.inkscape.org/namespaces/inkscape"
   xmlns:sodipodi="http://sodipodi.sourceforge.net/DTD/sodipodi-0.dtd"
   xmlns="http://www.w3.org/2000/svg"
   xmlns:svg="http://www.w3.org/2000/svg">
  <sodipodi:namedview
     id="namedview1"
     pagecolor="#ffffff"
     bordercolor="#000000"
     borderopacity="0.25"
     inkscape:showpageshadow="2"
     inkscape:pageopacity="0.0"
     inkscape:pagecheckerboard="0"
     inkscape:deskcolor="#d1d1d1"
     inkscape:document-units="mm"
     inkscape:zoom="3.8704762"
     inkscape:cx="77.768209"
     inkscape:cy="43.922244"
     inkscape:window-width="1600"
     inkscape:window-height="836"
     inkscape:window-x="0"
     inkscape:window-y="27"
     inkscape:window-maximized="1"
     inkscape:current-layer="layer1" />
  <defs
     id="defs1">
    <inkscape:path-effect
       effect="fillet_chamfer"
       id="path-effect18605"
       is_visible="true"
       lpeversion="1"
       satellites_param="F,0,0,1,0,15,0,1 @ F,0,0,1,0,15,0,1 @ F,0,0,1,0,15,0,1 @ F,0,0,1,0,15,0,1 @ F,0,0,1,0,15,0,1 @ F,0,0,1,0,15,0,1"
       unit="px"
       method="auto"
       mode="F"
       radius="15"
       chamfer_steps="1"
       flexible="false"
       use_knot_distance="true"
       apply_no_radius="true"
       apply_with_radius="true"
       only_selected="false"
       hide_knots="false"
       nodesatellites_param="F,0,0,1,0,15,0,1 @ F,0,0,1,0,15,0,1 @ F,0,0,1,0,15,0,1 @ F,0,0,1,0,15,0,1 @ F,0,0,1,0,15,0,1 @ F,0,0,1,0,15,0,1" />
    <inkscape:path-effect
       effect="fillet_chamfer"
       id="path-effect18609"
       is_visible="true"
       lpeversion="1"
       satellites_param="F,0,0,1,0,15,0,1 @ F,0,0,1,0,15,0,1 @ F,0,0,1,0,15,0,1 @ F,0,0,1,0,15,0,1 @ F,0,0,1,0,15,0,1 @ F,0,0,1,0,15,0,1"
       unit="px"
       method="auto"
       mode="F"
       radius="15"
       chamfer_steps="1"
       flexible="false"
       use_knot_distance="true"
       apply_no_radius="true"
       apply_with_radius="true"
       only_selected="false"
       hide_knots="false"
       nodesatellites_param="F,0,0,1,0,15,0,1 @ F,0,0,1,0,15,0,1 @ F,0,0,1,0,15,0,1 @ F,0,0,1,0,15,0,1 @ F,0,0,1,0,15,0,1 @ F,0,0,1,0,15,0,1" />
    <inkscape:path-effect
       effect="fillet_chamfer"
       id="path-effect18613"
       is_visible="true"
       lpeversion="1"
       satellites_param="F,0,0,1,0,15,0,1 @ F,0,0,1,0,15,0,1 @ F,0,0,1,0,15,0,1 @ F,0,0,1,0,15,0,1 @ F,0,0,1,0,15,0,1 @ F,0,0,1,0,15,0,1"
       unit="px"
       method="auto"
       mode="F"
       radius="15"
       chamfer_steps="1"
       flexible="false"
       use_knot_distance="true"
       apply_no_radius="true"
       apply_with_radius="true"
       only_selected="false"
       hide_knots="false"
       nodesatellites_param="F,0,0,1,0,15,0,1 @ F,0,0,1,0,15,0,1 @ F,0,0,1,0,15,0,1 @ F,0,0,1,0,15,0,1 @ F,0,0,1,0,15,0,1 @ F,0,0,1,0,15,0,1" />
    <inkscape:path-effect
       effect="fillet_chamfer"
       id="path-effect18617"
       is_visible="true"
       lpeversion="1"
       satellites_param="F,0,0,1,0,15,0,1 @ F,0,0,1,0,15,0,1 @ F,0,0,1,0,15,0,1 @ F,0,0,1,0,15,0,1 @ F,0,0,1,0,15,0,1 @ F,0,0,1,0,15,0,1"
       unit="px"
       method="auto"
       mode="F"
       radius="15"
       chamfer_steps="1"
       flexible="false"
       use_knot_distance="true"
       apply_no_radius="true"
       apply_with_radius="true"
       only_selected="false"
       hide_knots="false"
       nodesatellites_param="F,0,0,1,0,15,0,1 @ F,0,0,1,0,15,0,1 @ F,0,0,1,0,15,0,1 @ F,0,0,1,0,15,0,1 @ F,0,0,1,0,15,0,1 @ F,0,0,1,0,15,0,1" />
  </defs>
  <g
     inkscape:label="Layer 1"
     inkscape:groupmode="layer"
     id="layer1"
     transform="translate(-77.787521,-140.22917)">
    <path
       id="path18355"
       style="fill:#008aff;fill-opacity:1;stroke-width:0.0302345;stroke-linejoin:round;paint-order:stroke fill markers"
       d="m 86.141639,141.7686 a 1.5059881,1.5057952 0 0 0 -0.640452,0.19753 l -4.699367,2.71282 a 1.5059881,1.5057952 0 0 0 -0.752988,1.30405 v 5.42566 a 1.5059881,1.5057952 0 0 0 0.752988,1.30407 l 4.699367,2.71282 a 1.5059881,1.5057952 0 0 0 1.505977,0 l 4.699367,-2.71282 a 1.5059881,1.5057952 0 0 0 0.753013,-1.30407 V 145.983 a 1.5059881,1.5057952 0 0 0 -0.753013,-1.30405 l -4.699367,-2.71282 a 1.5059881,1.5057952 0 0 0 -0.865525,-0.19753 z" />
    <path
       id="path18375"
       style="fill:#000000;stroke-width:0.0131339"
       d="m 85.730148,144.94261 c -0.148863,-0.0101 -0.291353,0.15075 -0.203949,0.32206 0.05057,0.0991 0.166904,0.13954 0.270133,0.0939 l 0.06227,-0.0275 0.172215,0.0447 c 0.480989,0.12498 0.560804,0.23515 0.542625,0.74904 -0.01787,0.50537 -0.368509,1.3807 -0.58057,1.44933 -0.03614,0.0117 -0.09148,0.0551 -0.177294,0.13908 -0.482286,0.47178 -0.900573,0.46455 -1.377732,-0.0238 -0.06944,-0.0711 -0.111449,-0.10325 -0.147462,-0.11294 -0.114381,-0.0308 -0.386553,-0.54536 -0.497602,-0.94081 -0.131599,-0.46862 -0.117768,-0.89782 0.03437,-1.06701 0.09943,-0.11058 0.561084,-0.26916 0.638467,-0.21931 0.08009,0.0516 0.201324,0.0304 0.26603,-0.0465 0.183406,-0.21794 -0.127796,-0.49182 -0.32434,-0.28544 -0.03996,0.042 -0.06498,0.055 -0.13791,0.0717 -0.614015,0.14123 -0.785684,0.31099 -0.832541,0.82315 -0.04719,0.51577 0.205811,1.32652 0.552041,1.76906 0.02307,0.0295 0.03958,0.0702 0.045,0.11104 0.0291,0.21934 0.656347,0.66443 0.936362,0.66443 h 0.02871 l 0.006,0.6074 c 0.0048,0.48078 0.01028,0.62676 0.02632,0.70031 0.150587,0.69075 0.664044,1.14838 1.381865,1.23158 v 0 c 0.571811,0.0663 1.198587,-0.29018 1.475416,-0.83913 0.139981,-0.27756 0.1598,-0.40824 0.1598,-1.05682 v -0.50581 l 0.06899,-0.0161 c 0.94011,-0.21918 0.766503,-1.64489 -0.2003,-1.64489 -0.958937,0 -1.144529,1.42876 -0.213469,1.64338 l 0.06898,0.0159 v 0.52221 c 0,0.63142 -0.01151,0.70739 -0.14453,0.95395 -0.449312,0.83289 -1.618952,0.88201 -2.142138,0.0899 -0.184314,-0.27902 -0.202386,-0.37811 -0.202386,-1.11041 v -0.58388 l 0.07224,-0.0147 c 0.355697,-0.0721 0.867515,-0.44371 0.890267,-0.64639 0.0053,-0.0473 0.02364,-0.0861 0.07591,-0.16085 0.368678,-0.52707 0.58351,-1.27121 0.517949,-1.79402 -0.056,-0.44659 -0.219457,-0.60541 -0.763121,-0.74156 -0.145061,-0.0363 -0.160546,-0.0433 -0.203971,-0.0913 -0.04276,-0.0473 -0.09309,-0.0697 -0.142713,-0.0731 z m 2.182753,2.26629 c 0.137118,-1.5e-4 0.277045,0.0506 0.392011,0.15935 0.325934,0.30821 0.16354,0.8623 -0.280092,0.95571 -0.410598,0.0865 -0.779257,-0.3259 -0.645726,-0.72224 0.08451,-0.25083 0.30526,-0.39256 0.533807,-0.39282 z m 0.0042,0.15147 c -0.441847,0 -0.576402,0.59423 -0.177349,0.78329 0.186138,0.0882 0.41868,0.0225 0.526796,-0.1487 0.175647,-0.2782 -0.0206,-0.63459 -0.349447,-0.63459 z" />
    <path
       style="fill:#000000;stroke-width:0.0615699;stroke-linejoin:round;paint-order:stroke fill markers"
       d="m 81.580864,149.42639 c 0,0 1.318702,0.31109 2.260196,0.33612 0.558595,0.0149 2.219213,-0.30575 3.573952,-0.0825 2.30263,0.37943 3.86534,2.10872 3.86534,2.10872 0,0 -1.900754,-0.3 -2.628694,-0.33992 -1.417978,-0.0778 -1.670876,0.0884 -2.728455,0.15176 -1.565762,0.0938 -3.355643,-0.27481 -4.342339,-2.17421 z"
       id="path18377"
       sodipodi:nodetypes="csscsscc" />
    <path
       id="path18379"
       style="fill:#ffffff;stroke-width:0.0615699;stroke-linejoin:round;paint-order:stroke fill markers"
       d="m 85.020393,149.66855 c 5.39e-4,0.007 0.001,0.0158 0.0016,0.0223 0.0014,0.0158 0.003,0.0294 0.0047,0.0414 0.0017,0.012 0.0035,0.0223 0.0055,0.0315 0.0047,0.0216 0.0098,0.0429 0.01519,0.0641 0.0054,0.0211 0.01116,0.042 0.01726,0.0627 0.0061,0.0207 0.01254,0.0411 0.01933,0.0613 0.0068,0.0202 0.01394,0.0401 0.0214,0.0598 0.0075,0.0197 0.01526,0.0391 0.02339,0.0583 0.0081,0.0192 0.01659,0.0382 0.02538,0.0569 0.0088,0.0187 0.01789,0.0371 0.02732,0.0553 0.0094,0.0182 0.01917,0.0361 0.02923,0.0538 0.01007,0.0177 0.02045,0.0351 0.03114,0.0522 0.01069,0.0171 0.0217,0.034 0.03301,0.0506 0.01131,0.0166 0.02293,0.0329 0.03484,0.049 0.01192,0.0161 0.02412,0.0318 0.03663,0.0473 0.01251,0.0155 0.02532,0.0307 0.03842,0.0456 0.0131,0.0149 0.02649,0.0296 0.04017,0.044 0.01368,0.0144 0.02767,0.0284 0.04192,0.0422 0.01425,0.0138 0.02875,0.0273 0.04355,0.0405 0.01481,0.0132 0.02991,0.0261 0.04526,0.0387 0.01536,0.0126 0.031,0.0249 0.04689,0.0369 0.0159,0.012 0.03206,0.0237 0.04848,0.035 0.01643,0.0114 0.03309,0.0225 0.05004,0.0332 0.01695,0.0108 0.03417,0.0212 0.05163,0.0313 0.01746,0.0101 0.03514,0.0199 0.0531,0.0294 0.01796,0.009 0.03616,0.0187 0.05461,0.0275 0.01845,0.009 0.03715,0.0174 0.05608,0.0255 0.01893,0.008 0.03811,0.016 0.05751,0.0235 0.0194,0.008 0.039,0.0147 0.05887,0.0215 0.01986,0.007 0.03998,0.0133 0.0603,0.0195 0.02031,0.006 0.04085,0.012 0.06161,0.0174 0.02076,0.005 0.04173,0.0106 0.06292,0.0153 0.02119,0.005 0.04258,0.009 0.0642,0.0132 0.02161,0.004 0.04344,0.008 0.06547,0.011 0.02203,0.003 0.04427,0.006 0.0667,0.009 0.01787,0.002 0.03577,0.004 0.05374,0.005 0.01796,0.001 0.03598,0.002 0.05401,0.003 0.01803,4.6e-4 0.03609,5.4e-4 0.05417,1.5e-4 0.01808,-3e-4 0.03619,-0.001 0.05429,-0.002 0.0181,-10e-4 0.0362,-0.003 0.05429,-0.005 0.0181,-0.002 0.03618,-0.004 0.05425,-0.007 0.01807,-0.003 0.03612,-0.006 0.05413,-0.009 0.01802,-0.003 0.036,-0.007 0.05393,-0.0112 0.01794,-0.004 0.03586,-0.009 0.0537,-0.0133 0.01783,-0.005 0.03559,-0.01 0.0533,-0.0154 0.01771,-0.005 0.03534,-0.0113 0.0529,-0.0175 0.01756,-0.006 0.03504,-0.0127 0.05242,-0.0195 0.01738,-0.007 0.03465,-0.014 0.05182,-0.0214 0.01718,-0.007 0.03424,-0.0153 0.05119,-0.0234 0.01695,-0.008 0.03377,-0.0165 0.05047,-0.0252 0.0167,-0.009 0.03329,-0.0178 0.04972,-0.0271 0.01642,-0.009 0.03268,-0.019 0.0488,-0.0289 0.01612,-0.01 0.03209,-0.0202 0.04789,-0.0307 0.0158,-0.0105 0.03145,-0.0213 0.04689,-0.0324 0.01545,-0.0111 0.03071,-0.0224 0.04578,-0.0341 0.01507,-0.0116 0.02995,-0.0235 0.04463,-0.0357 0.01467,-0.0122 0.02914,-0.0246 0.04339,-0.0373 0.01425,-0.0127 0.02828,-0.0256 0.04208,-0.0388 0.0138,-0.0132 0.02736,-0.0267 0.04069,-0.0404 0.01333,-0.0137 0.02643,-0.0276 0.03926,-0.0418 0.01283,-0.0142 0.0254,-0.0286 0.03771,-0.0433 0.01231,-0.0147 0.02435,-0.0295 0.03611,-0.0446 0.01176,-0.0151 0.02322,-0.0304 0.0344,-0.0459 0.01119,-0.0155 0.02211,-0.0313 0.0327,-0.0473 0.01059,-0.016 0.02086,-0.0322 0.03082,-0.0485 0.01,-0.0164 0.01963,-0.0329 0.02896,-0.0497 0.0093,-0.0168 0.01832,-0.0337 0.02697,-0.0509 0.0087,-0.0173 0.01702,-0.0341 0.02486,-0.0505 0.0078,-0.0164 0.01522,-0.0323 0.02219,-0.048 0.007,-0.0157 0.01354,-0.0312 0.01969,-0.0465 0.0062,-0.0154 0.01188,-0.0307 0.01726,-0.046 0.0054,-0.0154 0.01041,-0.0308 0.01507,-0.0464 0.0047,-0.0157 0.009,-0.0316 0.01301,-0.0479 0.004,-0.0163 0.0077,-0.033 0.01106,-0.0503 6.15e-4,-0.003 0.0011,-0.006 0.0016,-0.009 -0.087,-0.024 -0.175244,-0.0462 -0.264815,-0.0665 -0.002,0.0126 -0.0041,0.0252 -0.0065,0.037 -0.003,0.0148 -0.0062,0.029 -0.0098,0.0428 -0.0036,0.0138 -0.0075,0.0272 -0.01173,0.0404 -0.0042,0.0132 -0.0088,0.0261 -0.01376,0.0391 -0.0049,0.0129 -0.01024,0.0258 -0.01595,0.0388 -0.0057,0.013 -0.01181,0.0262 -0.01834,0.0396 -0.01304,0.0269 -0.0278,0.055 -0.04443,0.0859 -0.007,0.013 -0.01419,0.0258 -0.02156,0.0385 -0.0074,0.0126 -0.01493,0.0251 -0.02263,0.0374 -0.0077,0.0122 -0.01556,0.0243 -0.02359,0.0361 -0.008,0.0119 -0.0162,0.0236 -0.02454,0.035 -0.0083,0.0115 -0.01685,0.0228 -0.0255,0.0339 -0.0086,0.0111 -0.01747,0.022 -0.02641,0.0327 -0.0089,0.0107 -0.01802,0.0212 -0.02725,0.0316 -0.0092,0.0103 -0.01862,0.0205 -0.02812,0.0304 -0.0095,0.01 -0.01911,0.0197 -0.02888,0.0292 -0.0098,0.01 -0.01965,0.0189 -0.02967,0.0281 -0.01002,0.009 -0.02017,0.0181 -0.03043,0.0269 -0.01026,0.009 -0.02061,0.0174 -0.0311,0.0258 -0.01049,0.008 -0.02111,0.0166 -0.03182,0.0246 -0.01071,0.008 -0.02153,0.0158 -0.03245,0.0234 -0.02184,0.0152 -0.04411,0.0297 -0.06674,0.0434 -0.02263,0.0137 -0.0456,0.0265 -0.06893,0.0386 -0.02332,0.0121 -0.04698,0.0234 -0.07092,0.034 -0.02394,0.0105 -0.04816,0.0203 -0.07263,0.0293 -0.02447,0.009 -0.04918,0.0172 -0.0741,0.0246 -0.02492,0.007 -0.05005,0.014 -0.07533,0.0198 -0.02528,0.006 -0.05072,0.0109 -0.07629,0.0151 -0.02556,0.004 -0.05124,0.008 -0.077,0.0104 -0.02576,0.003 -0.05161,0.005 -0.07748,0.006 -0.02587,0.001 -0.05177,0.001 -0.07768,8.7e-4 -0.0259,-5.3e-4 -0.05179,-0.002 -0.07764,-0.004 -0.02585,-0.002 -0.05169,-0.005 -0.0774,-0.009 -0.02571,-0.004 -0.05131,-0.008 -0.0768,-0.0134 -0.02549,-0.005 -0.05086,-0.0114 -0.07605,-0.0183 -0.02519,-0.007 -0.05021,-0.0146 -0.07501,-0.0231 -0.02481,-0.008 -0.04941,-0.0178 -0.07374,-0.0279 -0.02433,-0.0101 -0.04841,-0.021 -0.07219,-0.0327 -0.02378,-0.0117 -0.04726,-0.0242 -0.0704,-0.0376 -0.01157,-0.007 -0.02309,-0.0135 -0.03448,-0.0206 -0.0114,-0.007 -0.02268,-0.0144 -0.03389,-0.0218 -0.01121,-0.007 -0.02235,-0.0152 -0.03337,-0.0231 -0.01102,-0.008 -0.02192,-0.016 -0.03273,-0.0243 -0.01081,-0.008 -0.0215,-0.0168 -0.0321,-0.0255 -0.01059,-0.009 -0.0211,-0.0176 -0.03146,-0.0267 -0.01037,-0.009 -0.02062,-0.0184 -0.03074,-0.0279 -0.01013,-0.01 -0.02011,-0.0192 -0.02999,-0.0291 -0.0099,-0.01 -0.01965,-0.0201 -0.02927,-0.0304 -0.0096,-0.0103 -0.01913,-0.0208 -0.02848,-0.0316 -0.0094,-0.0107 -0.01857,-0.0217 -0.02764,-0.0328 -0.0091,-0.0112 -0.01802,-0.0225 -0.02681,-0.0341 -0.0088,-0.0115 -0.01741,-0.0233 -0.02589,-0.0353 -0.0085,-0.012 -0.0168,-0.0241 -0.02498,-0.0365 -0.01152,-0.0174 -0.0224,-0.0342 -0.03265,-0.0504 -0.01026,-0.0162 -0.01989,-0.0319 -0.02896,-0.0474 -0.0091,-0.0154 -0.01758,-0.0305 -0.02553,-0.0455 -0.0079,-0.015 -0.01533,-0.0299 -0.02223,-0.0449 -0.0069,-0.015 -0.01332,-0.0301 -0.01925,-0.0455 -0.0059,-0.0154 -0.0114,-0.0311 -0.01643,-0.0472 -0.005,-0.0161 -0.0096,-0.0328 -0.0138,-0.0501 -0.0042,-0.0173 -0.008,-0.0353 -0.01146,-0.0542 -0.0034,-0.0189 -0.0065,-0.0387 -0.0093,-0.0595 -0.0028,-0.0209 -0.0052,-0.0428 -0.0074,-0.0661 -6.6e-5,-6.9e-4 -7.7e-5,-0.002 -1.54e-4,-0.002 -0.09574,0.008 -0.188535,0.0155 -0.279294,0.0237 z" />
    <path
       sodipodi:type="star"
       style="fill:none;fill-opacity:1;stroke:#285b84;stroke-width:4.06984;stroke-linecap:square;stroke-miterlimit:4;stroke-dasharray:none;stroke-opacity:1;paint-order:markers fill stroke"
       id="path18383"
       sodipodi:sides="6"
       sodipodi:cx="-1672.1794"
       sodipodi:cy="946.90326"
       sodipodi:r1="130.87546"
       sodipodi:r2="113.34148"
       sodipodi:arg1="0.52359878"
       sodipodi:arg2="1.0471976"
       inkscape:flatsided="true"
       inkscape:rounded="2.42861e-17"
       inkscape:randomized="0"
       inkscape:transform-center-x="4.5443209e-06"
       inkscape:transform-center-y="2.4394509e-06"
       inkscape:path-effect="#path-effect18605"
       d="m -1571.8284,1019.841 -87.3607,50.4377 a 25.980762,25.980762 2.5219857e-7 0 1 -25.9807,0 l -87.3607,-50.4377 a 25.980762,25.980762 60 0 1 -12.9904,-22.50001 l 0,-100.87546 a 25.980762,25.980762 120 0 1 12.9904,-22.5 l 87.3607,-50.43773 a 25.980762,25.980762 2.5219909e-7 0 1 25.9807,0 l 87.3607,50.43773 a 25.980762,25.980762 60 0 1 12.9904,22.5 l 0,100.87546 a 25.980762,25.980762 120 0 1 -12.9904,22.50001 z"
       transform="matrix(0.05796551,0,0,0.05795808,183.18292,93.815135)" />
    <path
       sodipodi:type="star"
       style="fill:none;stroke:#285b84;stroke-width:1.62794;stroke-linecap:square;stroke-miterlimit:4;stroke-dasharray:none;stroke-opacity:1;paint-order:markers fill stroke"
       id="path18385"
       sodipodi:sides="6"
       sodipodi:cx="-1672.1794"
       sodipodi:cy="946.90326"
       sodipodi:r1="123.61347"
       sodipodi:r2="107.0524"
       sodipodi:arg1="0.52359878"
       sodipodi:arg2="1.0471976"
       inkscape:flatsided="true"
       inkscape:rounded="2.42861e-17"
       inkscape:randomized="0"
       inkscape:transform-center-x="4.8020269e-06"
       inkscape:transform-center-y="2.3040907e-06"
       inkscape:path-effect="#path-effect18609"
       d="m -1578.1174,1016.21 -81.0717,46.8067 a 25.980762,25.980762 2.5219908e-7 0 1 -25.9807,0 l -81.0717,-46.8067 a 25.980762,25.980762 60 0 1 -12.9904,-22.50001 l 0,-93.61347 a 25.980762,25.980762 120 0 1 12.9904,-22.5 l 81.0717,-46.80673 a 25.980762,25.980762 2.5219884e-7 0 1 25.9807,0 l 81.0717,46.80673 a 25.980762,25.980762 60 0 1 12.9904,22.5 l 0,93.61348 a 25.980762,25.980762 120 0 1 -12.9904,22.5 z"
       transform="matrix(0.05796551,0,0,0.05795808,183.18292,93.815135)" />
    <path
       id="path18427"
       style="fill:#ffffff;fill-opacity:1;stroke-width:0.0302345;stroke-linejoin:round;paint-order:stroke fill markers"
       d="m 86.141639,141.7686 a 1.5059881,1.5057952 0 0 0 -0.640452,0.19753 l -4.699367,2.71282 a 1.5059881,1.5057952 0 0 0 -0.752988,1.30405 v 5.42566 a 1.5059881,1.5057952 0 0 0 0.752988,1.30407 l 4.699367,2.71282 a 1.5059881,1.5057952 0 0 0 1.505977,0 l 4.699367,-2.71282 a 1.5059881,1.5057952 0 0 0 0.753013,-1.30407 V 145.983 a 1.5059881,1.5057952 0 0 0 -0.753013,-1.30405 l -4.699367,-2.71282 a 1.5059881,1.5057952 0 0 0 -0.865525,-0.19753 z" />
    <path
       id="path18453"
       style="fill:#000000;stroke-width:0.0131339"
       d="m 85.730148,144.94261 c -0.148863,-0.0101 -0.291353,0.15075 -0.203949,0.32206 0.05057,0.0991 0.166904,0.13954 0.270133,0.0939 l 0.06227,-0.0275 0.172215,0.0447 c 0.480989,0.12498 0.560804,0.23515 0.542625,0.74904 -0.01787,0.50537 -0.368509,1.3807 -0.58057,1.44933 -0.03614,0.0117 -0.09148,0.0551 -0.177294,0.13908 -0.482286,0.47178 -0.900573,0.46455 -1.377732,-0.0238 -0.06944,-0.0711 -0.111449,-0.10325 -0.147462,-0.11294 -0.114381,-0.0308 -0.386553,-0.54536 -0.497602,-0.94081 -0.131599,-0.46862 -0.117768,-0.89782 0.03437,-1.06701 0.09943,-0.11058 0.561084,-0.26916 0.638467,-0.21931 0.08009,0.0516 0.201324,0.0304 0.26603,-0.0465 0.183406,-0.21794 -0.127796,-0.49182 -0.32434,-0.28544 -0.03996,0.042 -0.06498,0.055 -0.13791,0.0717 -0.614015,0.14123 -0.785684,0.31099 -0.832541,0.82315 -0.04719,0.51577 0.205811,1.32652 0.552041,1.76906 0.02307,0.0295 0.03958,0.0702 0.045,0.11104 0.0291,0.21934 0.656347,0.66443 0.936362,0.66443 h 0.02871 l 0.006,0.6074 c 0.0048,0.48078 0.01028,0.62676 0.02632,0.70031 0.150587,0.69075 0.664044,1.14838 1.381865,1.23158 v 0 c 0.571811,0.0663 1.198587,-0.29018 1.475416,-0.83913 0.139981,-0.27756 0.1598,-0.40824 0.1598,-1.05682 v -0.50581 l 0.06899,-0.0161 c 0.94011,-0.21918 0.766503,-1.64489 -0.2003,-1.64489 -0.958937,0 -1.144529,1.42876 -0.213469,1.64338 l 0.06898,0.0159 v 0.52221 c 0,0.63142 -0.01151,0.70739 -0.14453,0.95395 -0.449312,0.83289 -1.618952,0.88201 -2.142138,0.0899 -0.184314,-0.27902 -0.202386,-0.37811 -0.202386,-1.11041 v -0.58388 l 0.07224,-0.0147 c 0.355697,-0.0721 0.867515,-0.44371 0.890267,-0.64639 0.0053,-0.0473 0.02364,-0.0861 0.07591,-0.16085 0.368678,-0.52707 0.58351,-1.27121 0.517949,-1.79402 -0.056,-0.44659 -0.219457,-0.60541 -0.763121,-0.74156 -0.145061,-0.0363 -0.160546,-0.0433 -0.203971,-0.0913 -0.04276,-0.0473 -0.09309,-0.0697 -0.142713,-0.0731 z m 2.182753,2.26629 c 0.137118,-1.5e-4 0.277045,0.0506 0.392011,0.15935 0.325934,0.30821 0.16354,0.8623 -0.280092,0.95571 -0.410598,0.0865 -0.779257,-0.3259 -0.645726,-0.72224 0.08451,-0.25083 0.30526,-0.39256 0.533807,-0.39282 z m 0.0042,0.15147 c -0.441847,0 -0.576402,0.59423 -0.177349,0.78329 0.186138,0.0882 0.41868,0.0225 0.526796,-0.1487 0.175647,-0.2782 -0.0206,-0.63459 -0.349447,-0.63459 z" />
    <path
       style="fill:#000000;stroke-width:0.0615699;stroke-linejoin:round;paint-order:stroke fill markers"
       d="m 81.580864,149.42639 c 0,0 1.318702,0.31109 2.260196,0.33612 0.558595,0.0149 2.219213,-0.30575 3.573952,-0.0825 2.30263,0.37943 3.86534,2.10872 3.86534,2.10872 0,0 -1.900754,-0.3 -2.628694,-0.33992 -1.417978,-0.0778 -1.670876,0.0884 -2.728455,0.15176 -1.565762,0.0938 -3.355643,-0.27481 -4.342339,-2.17421 z"
       id="path18455"
       sodipodi:nodetypes="csscsscc" />
    <path
       id="path18457"
       style="fill:#ffffff;stroke-width:0.0615699;stroke-linejoin:round;paint-order:stroke fill markers"
       d="m 85.020393,149.66855 c 5.39e-4,0.007 0.001,0.0158 0.0016,0.0223 0.0014,0.0158 0.003,0.0294 0.0047,0.0414 0.0017,0.012 0.0035,0.0223 0.0055,0.0315 0.0047,0.0216 0.0098,0.0429 0.01519,0.0641 0.0054,0.0211 0.01116,0.042 0.01726,0.0627 0.0061,0.0207 0.01254,0.0411 0.01933,0.0613 0.0068,0.0202 0.01394,0.0401 0.0214,0.0598 0.0075,0.0197 0.01526,0.0391 0.02339,0.0583 0.0081,0.0192 0.01659,0.0382 0.02538,0.0569 0.0088,0.0187 0.01789,0.0371 0.02732,0.0553 0.0094,0.0182 0.01917,0.0361 0.02923,0.0538 0.01007,0.0177 0.02045,0.0351 0.03114,0.0522 0.01069,0.0171 0.0217,0.034 0.03301,0.0506 0.01131,0.0166 0.02293,0.0329 0.03484,0.049 0.01192,0.0161 0.02412,0.0318 0.03663,0.0473 0.01251,0.0155 0.02532,0.0307 0.03842,0.0456 0.0131,0.0149 0.02649,0.0296 0.04017,0.044 0.01368,0.0144 0.02767,0.0284 0.04192,0.0422 0.01425,0.0138 0.02875,0.0273 0.04355,0.0405 0.01481,0.0132 0.02991,0.0261 0.04526,0.0387 0.01536,0.0126 0.031,0.0249 0.04689,0.0369 0.0159,0.012 0.03206,0.0237 0.04848,0.035 0.01643,0.0114 0.03309,0.0225 0.05004,0.0332 0.01695,0.0108 0.03417,0.0212 0.05163,0.0313 0.01746,0.0101 0.03514,0.0199 0.0531,0.0294 0.01796,0.009 0.03616,0.0187 0.05461,0.0275 0.01845,0.009 0.03715,0.0174 0.05608,0.0255 0.01893,0.008 0.03811,0.016 0.05751,0.0235 0.0194,0.008 0.039,0.0147 0.05887,0.0215 0.01986,0.007 0.03998,0.0133 0.0603,0.0195 0.02031,0.006 0.04085,0.012 0.06161,0.0174 0.02076,0.005 0.04173,0.0106 0.06292,0.0153 0.02119,0.005 0.04258,0.009 0.0642,0.0132 0.02161,0.004 0.04344,0.008 0.06547,0.011 0.02203,0.003 0.04427,0.006 0.0667,0.009 0.01787,0.002 0.03577,0.004 0.05374,0.005 0.01796,0.001 0.03598,0.002 0.05401,0.003 0.01803,4.6e-4 0.03609,5.4e-4 0.05417,1.5e-4 0.01808,-3e-4 0.03619,-0.001 0.05429,-0.002 0.0181,-10e-4 0.0362,-0.003 0.05429,-0.005 0.0181,-0.002 0.03618,-0.004 0.05425,-0.007 0.01807,-0.003 0.03612,-0.006 0.05413,-0.009 0.01802,-0.003 0.036,-0.007 0.05393,-0.0112 0.01794,-0.004 0.03586,-0.009 0.0537,-0.0133 0.01783,-0.005 0.03559,-0.01 0.0533,-0.0154 0.01771,-0.005 0.03534,-0.0113 0.0529,-0.0175 0.01756,-0.006 0.03504,-0.0127 0.05242,-0.0195 0.01738,-0.007 0.03465,-0.014 0.05182,-0.0214 0.01718,-0.007 0.03424,-0.0153 0.05119,-0.0234 0.01695,-0.008 0.03377,-0.0165 0.05047,-0.0252 0.0167,-0.009 0.03329,-0.0178 0.04972,-0.0271 0.01642,-0.009 0.03268,-0.019 0.0488,-0.0289 0.01612,-0.01 0.03209,-0.0202 0.04789,-0.0307 0.0158,-0.0105 0.03145,-0.0213 0.04689,-0.0324 0.01545,-0.0111 0.03071,-0.0224 0.04578,-0.0341 0.01507,-0.0116 0.02995,-0.0235 0.04463,-0.0357 0.01467,-0.0122 0.02914,-0.0246 0.04339,-0.0373 0.01425,-0.0127 0.02828,-0.0256 0.04208,-0.0388 0.0138,-0.0132 0.02736,-0.0267 0.04069,-0.0404 0.01333,-0.0137 0.02643,-0.0276 0.03926,-0.0418 0.01283,-0.0142 0.0254,-0.0286 0.03771,-0.0433 0.01231,-0.0147 0.02435,-0.0295 0.03611,-0.0446 0.01176,-0.0151 0.02322,-0.0304 0.0344,-0.0459 0.01119,-0.0155 0.02211,-0.0313 0.0327,-0.0473 0.01059,-0.016 0.02086,-0.0322 0.03082,-0.0485 0.01,-0.0164 0.01963,-0.0329 0.02896,-0.0497 0.0093,-0.0168 0.01832,-0.0337 0.02697,-0.0509 0.0087,-0.0173 0.01702,-0.0341 0.02486,-0.0505 0.0078,-0.0164 0.01522,-0.0323 0.02219,-0.048 0.007,-0.0157 0.01354,-0.0312 0.01969,-0.0465 0.0062,-0.0154 0.01188,-0.0307 0.01726,-0.046 0.0054,-0.0154 0.01041,-0.0308 0.01507,-0.0464 0.0047,-0.0157 0.009,-0.0316 0.01301,-0.0479 0.004,-0.0163 0.0077,-0.033 0.01106,-0.0503 6.15e-4,-0.003 0.0011,-0.006 0.0016,-0.009 -0.087,-0.024 -0.175244,-0.0462 -0.264815,-0.0665 -0.002,0.0126 -0.0041,0.0252 -0.0065,0.037 -0.003,0.0148 -0.0062,0.029 -0.0098,0.0428 -0.0036,0.0138 -0.0075,0.0272 -0.01173,0.0404 -0.0042,0.0132 -0.0088,0.0261 -0.01376,0.0391 -0.0049,0.0129 -0.01024,0.0258 -0.01595,0.0388 -0.0057,0.013 -0.01181,0.0262 -0.01834,0.0396 -0.01304,0.0269 -0.0278,0.055 -0.04443,0.0859 -0.007,0.013 -0.01419,0.0258 -0.02156,0.0385 -0.0074,0.0126 -0.01493,0.0251 -0.02263,0.0374 -0.0077,0.0122 -0.01556,0.0243 -0.02359,0.0361 -0.008,0.0119 -0.0162,0.0236 -0.02454,0.035 -0.0083,0.0115 -0.01685,0.0228 -0.0255,0.0339 -0.0086,0.0111 -0.01747,0.022 -0.02641,0.0327 -0.0089,0.0107 -0.01802,0.0212 -0.02725,0.0316 -0.0092,0.0103 -0.01862,0.0205 -0.02812,0.0304 -0.0095,0.01 -0.01911,0.0197 -0.02888,0.0292 -0.0098,0.01 -0.01965,0.0189 -0.02967,0.0281 -0.01002,0.009 -0.02017,0.0181 -0.03043,0.0269 -0.01026,0.009 -0.02061,0.0174 -0.0311,0.0258 -0.01049,0.008 -0.02111,0.0166 -0.03182,0.0246 -0.01071,0.008 -0.02153,0.0158 -0.03245,0.0234 -0.02184,0.0152 -0.04411,0.0297 -0.06674,0.0434 -0.02263,0.0137 -0.0456,0.0265 -0.06893,0.0386 -0.02332,0.0121 -0.04698,0.0234 -0.07092,0.034 -0.02394,0.0105 -0.04816,0.0203 -0.07263,0.0293 -0.02447,0.009 -0.04918,0.0172 -0.0741,0.0246 -0.02492,0.007 -0.05005,0.014 -0.07533,0.0198 -0.02528,0.006 -0.05072,0.0109 -0.07629,0.0151 -0.02556,0.004 -0.05124,0.008 -0.077,0.0104 -0.02576,0.003 -0.05161,0.005 -0.07748,0.006 -0.02587,0.001 -0.05177,0.001 -0.07768,8.7e-4 -0.0259,-5.3e-4 -0.05179,-0.002 -0.07764,-0.004 -0.02585,-0.002 -0.05169,-0.005 -0.0774,-0.009 -0.02571,-0.004 -0.05131,-0.008 -0.0768,-0.0134 -0.02549,-0.005 -0.05086,-0.0114 -0.07605,-0.0183 -0.02519,-0.007 -0.05021,-0.0146 -0.07501,-0.0231 -0.02481,-0.008 -0.04941,-0.0178 -0.07374,-0.0279 -0.02433,-0.0101 -0.04841,-0.021 -0.07219,-0.0327 -0.02378,-0.0117 -0.04726,-0.0242 -0.0704,-0.0376 -0.01157,-0.007 -0.02309,-0.0135 -0.03448,-0.0206 -0.0114,-0.007 -0.02268,-0.0144 -0.03389,-0.0218 -0.01121,-0.007 -0.02235,-0.0152 -0.03337,-0.0231 -0.01102,-0.008 -0.02192,-0.016 -0.03273,-0.0243 -0.01081,-0.008 -0.0215,-0.0168 -0.0321,-0.0255 -0.01059,-0.009 -0.0211,-0.0176 -0.03146,-0.0267 -0.01037,-0.009 -0.02062,-0.0184 -0.03074,-0.0279 -0.01013,-0.01 -0.02011,-0.0192 -0.02999,-0.0291 -0.0099,-0.01 -0.01965,-0.0201 -0.02927,-0.0304 -0.0096,-0.0103 -0.01913,-0.0208 -0.02848,-0.0316 -0.0094,-0.0107 -0.01857,-0.0217 -0.02764,-0.0328 -0.0091,-0.0112 -0.01802,-0.0225 -0.02681,-0.0341 -0.0088,-0.0115 -0.01741,-0.0233 -0.02589,-0.0353 -0.0085,-0.012 -0.0168,-0.0241 -0.02498,-0.0365 -0.01152,-0.0174 -0.0224,-0.0342 -0.03265,-0.0504 -0.01026,-0.0162 -0.01989,-0.0319 -0.02896,-0.0474 -0.0091,-0.0154 -0.01758,-0.0305 -0.02553,-0.0455 -0.0079,-0.015 -0.01533,-0.0299 -0.02223,-0.0449 -0.0069,-0.015 -0.01332,-0.0301 -0.01925,-0.0455 -0.0059,-0.0154 -0.0114,-0.0311 -0.01643,-0.0472 -0.005,-0.0161 -0.0096,-0.0328 -0.0138,-0.0501 -0.0042,-0.0173 -0.008,-0.0353 -0.01146,-0.0542 -0.0034,-0.0189 -0.0065,-0.0387 -0.0093,-0.0595 -0.0028,-0.0209 -0.0052,-0.0428 -0.0074,-0.0661 -6.6e-5,-6.9e-4 -7.7e-5,-0.002 -1.54e-4,-0.002 -0.09574,0.008 -0.188535,0.0155 -0.279294,0.0237 z" />
    <path
       sodipodi:type="star"
       style="fill:none;fill-opacity:1;stroke:#000000;stroke-width:4.06984;stroke-linecap:square;stroke-miterlimit:4;stroke-dasharray:none;stroke-opacity:1;paint-order:markers fill stroke"
       id="path18461"
       sodipodi:sides="6"
       sodipodi:cx="-1672.1794"
       sodipodi:cy="946.90326"
       sodipodi:r1="130.87546"
       sodipodi:r2="113.34148"
       sodipodi:arg1="0.52359878"
       sodipodi:arg2="1.0471976"
       inkscape:flatsided="true"
       inkscape:rounded="2.42861e-17"
       inkscape:randomized="0"
       inkscape:transform-center-x="4.5443209e-06"
       inkscape:transform-center-y="2.4394509e-06"
       inkscape:path-effect="#path-effect18613"
       d="m -1571.8284,1019.841 -87.3607,50.4377 a 25.980762,25.980762 2.5219857e-7 0 1 -25.9807,0 l -87.3607,-50.4377 a 25.980762,25.980762 60 0 1 -12.9904,-22.50001 l 0,-100.87546 a 25.980762,25.980762 120 0 1 12.9904,-22.5 l 87.3607,-50.43773 a 25.980762,25.980762 2.5219909e-7 0 1 25.9807,0 l 87.3607,50.43773 a 25.980762,25.980762 60 0 1 12.9904,22.5 l 0,100.87546 a 25.980762,25.980762 120 0 1 -12.9904,22.50001 z"
       transform="matrix(0.05796551,0,0,0.05795808,183.18292,93.815135)" />
    <path
       sodipodi:type="star"
       style="fill:none;stroke:#00847c;stroke-width:1.62794;stroke-linecap:square;stroke-miterlimit:4;stroke-dasharray:none;stroke-opacity:1;paint-order:markers fill stroke"
       id="path18463"
       sodipodi:sides="6"
       sodipodi:cx="-1672.1794"
       sodipodi:cy="946.90326"
       sodipodi:r1="123.61347"
       sodipodi:r2="107.0524"
       sodipodi:arg1="0.52359878"
       sodipodi:arg2="1.0471976"
       inkscape:flatsided="true"
       inkscape:rounded="2.42861e-17"
       inkscape:randomized="0"
       inkscape:transform-center-x="4.8020269e-06"
       inkscape:transform-center-y="2.3040907e-06"
       inkscape:path-effect="#path-effect18617"
       d="m -1578.1174,1016.21 -81.0717,46.8067 a 25.980762,25.980762 2.5219908e-7 0 1 -25.9807,0 l -81.0717,-46.8067 a 25.980762,25.980762 60 0 1 -12.9904,-22.50001 l 0,-93.61347 a 25.980762,25.980762 120 0 1 12.9904,-22.5 l 81.0717,-46.80673 a 25.980762,25.980762 2.5219884e-7 0 1 25.9807,0 l 81.0717,46.80673 a 25.980762,25.980762 60 0 1 12.9904,22.5 l 0,93.61348 a 25.980762,25.980762 120 0 1 -12.9904,22.5 z"
       transform="matrix(0.05796551,0,0,0.05795808,183.18292,93.815135)" />
    <text
       xml:space="preserve"
       style="font-style:normal;font-variant:normal;font-weight:300;font-stretch:normal;font-size:3.17619px;line-height:1.1;font-family:'Muli Light';-inkscape-font-specification:'Muli Light,  Light';text-align:end;letter-spacing:0.0304322px;text-anchor:end;fill:#00847c;fill-opacity:1;stroke:none;stroke-width:0.41903;stroke-linejoin:round;stroke-dasharray:none;stroke-opacity:1;paint-order:stroke fill markers"
       x="117.4625"
       y="150.63538"
       id="text18593"
       transform="scale(1.0294696,0.97137399)"><tspan
         sodipodi:role="line"
         style="font-style:normal;font-variant:normal;font-weight:normal;font-stretch:normal;line-height:1.1;font-family:'Muli Black';-inkscape-font-specification:'Muli Black, ';letter-spacing:0.0304322px;fill:#00847c;fill-opacity:1;stroke:none;stroke-width:0.41903;stroke-dasharray:none"
         x="117.49294"
         y="150.63538"
         id="tspan1">Praktek Dokter</tspan></text>
    <text
       xml:space="preserve"
       style="font-style:italic;font-variant:normal;font-weight:900;font-stretch:normal;font-size:6.30234px;line-height:1;font-family:'Muli Black';-inkscape-font-specification:'Muli Black,  Heavy Italic';text-align:end;letter-spacing:0.0583258px;text-anchor:end;fill:#000000;fill-opacity:1;stroke:#ffffff;stroke-width:0.837685;stroke-linecap:round;stroke-linejoin:round;stroke-dasharray:none;stroke-opacity:1;paint-order:stroke fill markers"
       x="121.01105"
       y="152.4538"
       id="text18597"
       transform="scale(1.0000642,0.99993581)"><tspan
         sodipodi:role="line"
         style="font-style:italic;font-variant:normal;font-weight:900;font-stretch:normal;font-family:'Muli Black';-inkscape-font-specification:'Muli Black,  Heavy Italic';fill:#000000;fill-opacity:1;stroke:#ffffff;stroke-width:0.837685;stroke-linecap:round;stroke-dasharray:none;stroke-opacity:1;paint-order:stroke fill markers"
         x="121.06937"
         y="152.4538"
         id="tspan18595">dr. Arini</tspan></text>
  </g>
</svg>
